<svg width="30" height="30" viewBox="0 0 30 30" fill="none" xmlns="http://www.w3.org/2000/svg">
<path d="M10 11H15C15.5523 11 16 11.4477 16 12V15C16 15.5523 15.5523 16 15 16H10V11Z" fill="#FFD600"/>
<path d="M19.131 10.5C20.58 10.5 21.756 11.676 21.756 13.125V20.2485C21.756 22.0391 21.0447 23.7564 19.7785 25.0225C18.5124 26.2887 16.7951 27 15.0045 27C13.2139 27 11.4966 26.2887 10.2305 25.0225C8.96432 23.7564 8.253 22.0391 8.253 20.2485V13.125C8.253 11.676 9.4275 10.5 10.878 10.5H19.131ZM19.131 12.75H10.878C10.7785 12.75 10.6832 12.7895 10.6128 12.8598C10.5425 12.9302 10.503 13.0255 10.503 13.125V20.2485C10.503 21.4424 10.9773 22.5873 11.8215 23.4315C12.6657 24.2757 13.8106 24.75 15.0045 24.75C16.1984 24.75 17.3433 24.2757 18.1875 23.4315C19.0317 22.5873 19.506 21.4424 19.506 20.2485V13.125C19.506 13.0255 19.4665 12.9302 19.3962 12.8598C19.3258 12.7895 19.2305 12.75 19.131 12.75ZM2.625 10.5H7.6965C7.1673 11.1391 6.84411 11.9236 6.7695 12.75H2.625C2.52554 12.75 2.43016 12.7895 2.35984 12.8598C2.28951 12.9302 2.25 13.0255 2.25 13.125V17.9985C2.2499 18.5653 2.37825 19.1248 2.62541 19.6349C2.87256 20.145 3.23209 20.5925 3.677 20.9437C4.1219 21.2949 4.64061 21.5407 5.19415 21.6627C5.74769 21.7847 6.32168 21.7797 6.873 21.648C7.0005 22.404 7.233 23.1255 7.5525 23.796C6.66342 24.0339 5.73155 24.064 4.82894 23.8842C3.92633 23.7044 3.07717 23.3194 2.34712 22.759C1.61707 22.1986 1.02568 21.4778 0.618695 20.6523C0.211706 19.8269 1.84497e-05 18.9188 0 17.9985V13.125C0 11.676 1.176 10.5 2.625 10.5ZM22.3125 10.5H27.375C28.824 10.5 30 11.676 30 13.125V18C30.0002 18.9197 29.789 19.8272 29.3826 20.6523C28.9762 21.4774 28.3856 22.1981 27.6563 22.7586C26.9271 23.319 26.0788 23.7044 25.1769 23.8848C24.275 24.0652 23.3437 24.0358 22.455 23.799C22.776 23.127 23.0085 22.4055 23.1375 21.6495C23.6881 21.7796 24.2611 21.7835 24.8134 21.6608C25.3657 21.538 25.8831 21.2919 26.3268 20.9408C26.7705 20.5898 27.1291 20.1429 27.3755 19.6336C27.622 19.1243 27.75 18.5658 27.75 18V13.125C27.75 13.0255 27.7105 12.9302 27.6402 12.8598C27.5698 12.7895 27.4745 12.75 27.375 12.75H23.2395C23.1649 11.9236 22.8417 11.1391 22.3125 10.5ZM15 0C16.1935 0 17.3381 0.474106 18.182 1.31802C19.0259 2.16193 19.5 3.30653 19.5 4.5C19.5 5.69347 19.0259 6.83807 18.182 7.68198C17.3381 8.52589 16.1935 9 15 9C13.8065 9 12.6619 8.52589 11.818 7.68198C10.9741 6.83807 10.5 5.69347 10.5 4.5C10.5 3.30653 10.9741 2.16193 11.818 1.31802C12.6619 0.474106 13.8065 0 15 0ZM24.75 1.5C25.7446 1.5 26.6984 1.89509 27.4017 2.59835C28.1049 3.30161 28.5 4.25544 28.5 5.25C28.5 6.24456 28.1049 7.19839 27.4017 7.90165C26.6984 8.60491 25.7446 9 24.75 9C23.7554 9 22.8016 8.60491 22.0983 7.90165C21.3951 7.19839 21 6.24456 21 5.25C21 4.25544 21.3951 3.30161 22.0983 2.59835C22.8016 1.89509 23.7554 1.5 24.75 1.5ZM5.25 1.5C6.24456 1.5 7.19839 1.89509 7.90165 2.59835C8.60491 3.30161 9 4.25544 9 5.25C9 6.24456 8.60491 7.19839 7.90165 7.90165C7.19839 8.60491 6.24456 9 5.25 9C4.25544 9 3.30161 8.60491 2.59835 7.90165C1.89509 7.19839 1.5 6.24456 1.5 5.25C1.5 4.25544 1.89509 3.30161 2.59835 2.59835C3.30161 1.89509 4.25544 1.5 5.25 1.5ZM15 2.25C14.4033 2.25 13.831 2.48705 13.409 2.90901C12.9871 3.33097 12.75 3.90326 12.75 4.5C12.75 5.09674 12.9871 5.66903 13.409 6.09099C13.831 6.51295 14.4033 6.75 15 6.75C15.5967 6.75 16.169 6.51295 16.591 6.09099C17.0129 5.66903 17.25 5.09674 17.25 4.5C17.25 3.90326 17.0129 3.33097 16.591 2.90901C16.169 2.48705 15.5967 2.25 15 2.25ZM24.75 3.75C24.3522 3.75 23.9706 3.90804 23.6893 4.18934C23.408 4.47064 23.25 4.85218 23.25 5.25C23.25 5.64782 23.408 6.02936 23.6893 6.31066C23.9706 6.59196 24.3522 6.75 24.75 6.75C25.1478 6.75 25.5294 6.59196 25.8107 6.31066C26.092 6.02936 26.25 5.64782 26.25 5.25C26.25 4.85218 26.092 4.47064 25.8107 4.18934C25.5294 3.90804 25.1478 3.75 24.75 3.75ZM5.25 3.75C4.85218 3.75 4.47064 3.90804 4.18934 4.18934C3.90804 4.47064 3.75 4.85218 3.75 5.25C3.75 5.64782 3.90804 6.02936 4.18934 6.31066C4.47064 6.59196 4.85218 6.75 5.25 6.75C5.64782 6.75 6.02936 6.59196 6.31066 6.31066C6.59196 6.02936 6.75 5.64782 6.75 5.25C6.75 4.85218 6.59196 4.47064 6.31066 4.18934C6.02936 3.90804 5.64782 3.75 5.25 3.75Z" fill="#005BD8"/>
<circle cx="23" cy="23" r="6.1" fill="white" stroke="#FFD600" stroke-width="1.8"/>
<path d="M23 16C19.1344 16 16 19.1344 16 23C16 26.8656 19.1344 30 23 30C26.8656 30 30 26.8656 30 23C30 19.1344 26.8656 16 23 16ZM23 28.8125C19.7906 28.8125 17.1875 26.2094 17.1875 23C17.1875 19.7906 19.7906 17.1875 23 17.1875C26.2094 17.1875 28.8125 19.7906 28.8125 23C28.8125 26.2094 26.2094 28.8125 23 28.8125ZM23.7453 22.6375L23.3484 22.5453V20.4469C23.9422 20.5281 24.3094 20.9 24.3719 21.3562C24.3797 21.4187 24.4328 21.4641 24.4953 21.4641H25.1969C25.2703 21.4641 25.3281 21.4 25.3219 21.3266C25.2266 20.3531 24.425 19.7281 23.3547 19.6203V19.1094C23.3547 19.0406 23.2984 18.9844 23.2297 18.9844H22.7906C22.7219 18.9844 22.6656 19.0406 22.6656 19.1094V19.625C21.5594 19.7328 20.6937 20.3438 20.6937 21.4844C20.6937 22.5406 21.4719 23.05 22.2891 23.2453L22.675 23.3438V25.5734C21.9844 25.4813 21.5969 25.1125 21.5172 24.6156C21.5078 24.5563 21.4547 24.5125 21.3938 24.5125H20.6719C20.5984 24.5125 20.5406 24.575 20.5469 24.6484C20.6172 25.5078 21.2688 26.2984 22.6594 26.4V26.8906C22.6594 26.9594 22.7156 27.0156 22.7844 27.0156H23.2281C23.2969 27.0156 23.3531 26.9594 23.3531 26.8891L23.35 26.3938C24.5734 26.2859 25.4484 25.6313 25.4484 24.4563C25.4469 23.3719 24.7578 22.8875 23.7453 22.6375ZM22.6734 22.3844C22.5859 22.3594 22.5125 22.3359 22.4391 22.3063C21.9109 22.1156 21.6656 21.8078 21.6656 21.4109C21.6656 20.8437 22.0953 20.5203 22.6734 20.4469V22.3844ZM23.3484 25.5781V23.4891C23.3969 23.5031 23.4406 23.5141 23.4859 23.5234C24.225 23.7484 24.4734 24.0609 24.4734 24.5406C24.4734 25.1516 24.0141 25.5188 23.3484 25.5781Z" fill="#FFD600"/>
</svg>
